<?xml version="1.0" standalone="no"?>
<!DOCTYPE svg PUBLIC "-//W3C//DTD SVG 20010904//EN"
 "http://www.w3.org/TR/2001/REC-SVG-20010904/DTD/svg10.dtd">
<svg version="1.0" xmlns="http://www.w3.org/2000/svg"
 width="200.000000pt" height="200.000000pt" viewBox="0 0 200.000000 200.000000"
 preserveAspectRatio="xMidYMid meet">

<g transform="translate(0.000000,200.000000) scale(0.100000,-0.100000)"
fill="#000000" stroke="none">
<path d="M910 1137 c-106 -36 -76 -207 36 -207 45 0 92 28 80 48 -5 8 -15 6
-35 -9 -57 -42 -113 22 -90 106 15 54 87 64 73 9 -5 -19 -2 -24 14 -24 51 0
52 61 0 79 -37 13 -34 13 -78 -2z m-19 -45 c-21 -39 -13 -91 18 -123 33 -32
33 -34 -2 -18 -28 13 -47 48 -47 85 0 27 28 89 37 81 2 -3 0 -14 -6 -25z m116
-6 c-10 -26 -25 -18 -19 10 3 17 8 22 15 15 5 -5 7 -17 4 -25z"/>
<path d="M710 1131 c0 -6 4 -12 9 -16 12 -7 -46 -147 -65 -158 -26 -15 -14
-27 25 -27 44 0 61 14 35 28 -25 14 -7 32 31 32 38 0 56 -18 31 -32 -27 -15
-8 -28 40 -28 31 0 44 4 44 14 0 8 -6 16 -13 19 -7 3 -26 38 -41 78 -16 41
-33 80 -39 87 -11 14 -57 16 -57 3z m50 -15 c0 -2 16 -41 35 -85 24 -57 30
-81 21 -81 -7 0 -16 12 -19 28 -4 22 -31 87 -55 135 -2 4 1 7 7 7 6 0 11 -2
11 -4z m-1 -73 c11 -21 9 -23 -13 -23 -24 0 -25 2 -14 25 6 14 12 24 13 23 1
-2 8 -13 14 -25z"/>
<path d="M1030 1131 c0 -6 5 -11 10 -11 6 0 10 -33 10 -80 0 -47 -4 -80 -10
-80 -5 0 -10 -7 -10 -15 0 -11 11 -15 40 -15 40 0 54 15 25 26 -11 5 -15 21
-14 58 l1 51 30 -67 c17 -38 35 -68 40 -68 5 0 18 21 29 48 38 91 38 91 38 35
1 -41 -2 -53 -14 -53 -8 0 -15 -7 -15 -15 0 -11 12 -15 44 -15 46 0 70 15 42
26 -23 9 -23 152 -1 160 28 11 15 24 -23 24 -37 0 -38 -1 -62 -65 -13 -36 -27
-65 -30 -65 -3 0 -18 28 -35 63 -27 55 -34 62 -62 65 -19 2 -33 -1 -33 -7z
m95 -89 c36 -76 42 -97 26 -88 -5 3 -21 36 -36 73 -15 38 -34 76 -43 86 -15
16 -15 17 1 11 10 -3 33 -40 52 -82z m125 -2 c0 -49 -4 -90 -9 -90 -9 0 -20
168 -12 176 16 15 21 -7 21 -86z"/>
</g>
</svg>
