<?xml version="1.0" standalone="no"?>
<!DOCTYPE svg PUBLIC "-//W3C//DTD SVG 20010904//EN"
 "http://www.w3.org/TR/2001/REC-SVG-20010904/DTD/svg10.dtd">
<svg version="1.0" xmlns="http://www.w3.org/2000/svg"
 width="200.000000pt" height="200.000000pt" viewBox="0 0 200.000000 200.000000"
 preserveAspectRatio="xMidYMid meet">

<g transform="translate(0.000000,200.000000) scale(0.100000,-0.100000)"
fill="#000000" stroke="none">
<path d="M460 1050 c0 -62 3 -80 14 -80 10 0 16 19 21 65 8 72 3 95 -20 95
-12 0 -15 -15 -15 -80z"/>
<path d="M527 1093 c-4 -3 -7 -19 -7 -35 0 -36 25 -38 34 -3 9 36 -7 58 -27
38z"/>
<path d="M580 990 c0 -29 4 -40 15 -40 11 0 15 11 15 40 0 29 -4 40 -15 40
-11 0 -15 -11 -15 -40z"/>
<path d="M407 1013 c-4 -3 -7 -21 -7 -40 0 -39 25 -46 34 -9 9 38 -8 69 -27
49z"/>
<path d="M527 983 c-4 -3 -7 -15 -7 -25 0 -22 26 -24 34 -2 10 25 -10 45 -27
27z"/>
</g>
</svg>
