<?xml version="1.0" standalone="no"?>
<!DOCTYPE svg PUBLIC "-//W3C//DTD SVG 20010904//EN"
 "http://www.w3.org/TR/2001/REC-SVG-20010904/DTD/svg10.dtd">
<svg version="1.0" xmlns="http://www.w3.org/2000/svg"
 width="225.000000pt" height="225.000000pt" viewBox="0 0 225.000000 225.000000"
 preserveAspectRatio="xMidYMid meet">

<g transform="translate(0.000000,225.000000) scale(0.100000,-0.100000)"
fill="#000000" stroke="none">
<path d="M955 1936 c-294 -68 -518 -270 -617 -556 -32 -92 -33 -100 -33 -255
0 -155 1 -163 33 -255 42 -123 110 -235 194 -320 273 -277 681 -330 1023 -132
77 45 232 200 277 277 198 342 146 746 -131 1021 -86 86 -198 154 -321 195
-85 29 -110 32 -230 35 -90 3 -155 -1 -195 -10z m406 -86 c252 -84 436 -281
506 -540 24 -88 24 -281 0 -370 -40 -150 -141 -309 -259 -407 -65 -54 -210
-127 -298 -150 -89 -24 -282 -24 -370 0 -259 70 -454 253 -541 507 -31 90 -33
103 -33 235 0 131 2 146 31 231 82 236 247 407 473 488 103 37 159 46 286 41
91 -3 127 -9 205 -35z"/>
<path d="M779 1471 c-32 -33 -36 -58 -14 -100 37 -73 155 -46 155 36 0 45 -9
62 -41 78 -42 22 -67 18 -100 -14z"/>
<path d="M750 1000 l0 -250 85 0 85 0 0 250 0 250 -85 0 -85 0 0 -250z"/>
<path d="M1030 1000 l0 -250 69 0 70 0 3 165 c3 150 5 166 24 185 11 11 36 23
55 26 29 5 41 1 65 -19 l29 -25 3 -166 3 -166 76 0 75 0 -4 188 c-3 161 -6
192 -23 227 -46 93 -213 114 -297 38 -17 -15 -18 -14 -18 15 l0 32 -65 0 -65
0 0 -250z"/>
</g>
</svg>
